<svg width="50" height="50" viewBox="0 0 50 50" fill="none" xmlns="http://www.w3.org/2000/svg">
<g clip-path="url(#clip0_139_2841)">
<path d="M24.9989 1.03485e-07C29.9426 0.000449966 34.7752 1.46706 38.8856 4.21437C42.996 6.96168 46.1995 10.8663 48.0911 15.4345C49.9826 20.0027 50.4773 25.0293 49.5126 29.8787C48.5478 34.728 46.167 39.1824 42.671 42.6785C39.1751 46.1746 34.7211 48.5554 29.8723 49.5198C25.0235 50.4842 19.9977 49.989 15.4303 48.0968C10.8629 46.2045 6.95908 43.0002 4.21252 38.889C1.46596 34.7778 2.04622e-08 29.9444 0 25C-1.35875e-08 21.7168 0.64662 18.4657 1.90296 15.4324C3.1593 12.3991 5.00075 9.64302 7.32214 7.32153C9.64353 5.00003 12.3994 3.15859 15.4324 1.90236C18.4654 0.646124 21.7161 -0.000298617 24.9989 1.03485e-07Z" fill="#0B3D91"/>
<path d="M24.9966 1.04175C20.2583 1.0422 15.6266 2.4479 11.6871 5.08109C7.74755 7.71427 4.67725 11.4567 2.8644 15.8351C1.05155 20.2135 0.577577 25.0312 1.50241 29.679C2.42725 34.3267 4.70936 38.5959 8.06016 41.9465C11.411 45.2971 15.6799 47.5787 20.3273 48.5028C24.9746 49.4269 29.7916 48.952 34.169 47.138C38.5465 45.3241 42.2878 42.2527 44.9199 38.3121C47.5519 34.3716 48.9566 29.7389 48.9561 25C48.9543 18.6456 46.4293 12.5521 41.9363 8.05934C37.4432 3.56656 31.3501 1.04235 24.9966 1.04175Z" fill="white"/>
<path d="M24.9966 1.93335C20.4347 1.9338 15.9754 3.28715 12.1826 5.82227C8.38972 8.35738 5.43368 11.9604 3.68823 16.1757C1.94279 20.391 1.48634 25.0294 2.3766 29.5041C3.26685 33.9789 5.46383 38.0892 8.68972 41.3152C11.9156 44.5412 16.0255 46.7381 20.4998 47.628C24.974 48.5179 29.6117 48.061 33.8262 46.3149C38.0408 44.5688 41.6431 41.612 44.1775 37.8184C46.7119 34.0248 48.0646 29.5647 48.0646 25.0022C48.0652 21.9724 47.4689 18.9722 46.3098 16.1729C45.1507 13.3737 43.4515 10.8302 41.3093 8.68793C39.1671 6.54564 36.6238 4.84647 33.8248 3.68749C31.0258 2.52852 28.026 1.93245 24.9966 1.93335Z" fill="#FD1813"/>
<path d="M30.3753 22.5161C36.3566 25.4344 38.217 32.8655 38.217 35.6155H35.9768C35.9768 30.5659 34.0755 26.3852 29.7021 22.5161C34.0755 18.6493 35.9768 14.439 35.9768 9.39172H38.217C38.217 12.1394 36.3566 19.6001 30.3753 22.5161Z" fill="#FFFF00"/>
<path d="M29.254 22.5161C31.4988 24.4245 35.5834 28.43 35.5288 35.6155H33.2886C33.2886 32.4174 32.1515 26.7809 28.5831 22.5161C32.1469 18.2535 33.2886 12.5875 33.2886 9.39172H35.5288C35.5834 16.5703 31.4988 20.61 29.254 22.5161Z" fill="#FFFF00"/>
<path d="M28.1351 22.5161C31.1946 26.1935 32.8607 30.8315 32.8406 35.6155H30.6004C30.7164 32.6972 30.1069 26.0463 27.4619 22.5161C30.1069 18.9814 30.7164 12.3077 30.6004 9.39172H32.8406C32.8584 14.1828 31.193 18.828 28.1351 22.5161Z" fill="#FFFF00"/>
<path d="M27.0139 22.5161C28.3921 24.0856 30.2684 29.217 30.1501 35.6155H27.9099C27.9099 32.0785 27.9531 25.7688 26.343 22.5161C27.9531 19.2634 27.9099 12.9242 27.9099 9.39172H30.1501C30.2684 15.7856 28.3921 20.9444 27.0139 22.5161Z" fill="#FFFF00"/>
<path d="M25.2217 35.6155H27.4619C27.521 30.7888 27.2186 25.3798 25.8949 22.5161C27.2186 19.6547 27.521 14.2139 27.4619 9.39172H25.2217V35.6155Z" fill="#FFFF00"/>
<path d="M19.6225 22.5161C13.6388 25.4344 11.7808 32.8655 11.7808 35.6155H14.0209C14.0209 30.5659 15.9222 26.3852 20.2934 22.5161C15.9222 18.6493 14.0209 14.439 14.0209 9.39172H11.7808C11.7808 12.1394 13.6388 19.6001 19.6225 22.5161Z" fill="#FFFF00"/>
<path d="M20.7414 22.5161C18.499 24.4245 14.4144 28.43 14.469 35.6155H16.7114C16.7114 32.4174 17.8486 26.7809 21.4169 22.5161C17.8486 18.2535 16.7114 12.5875 16.7114 9.39172H14.4713C14.4167 16.5703 18.5013 20.61 20.7437 22.5161" fill="#FFFF00"/>
<path d="M21.8626 22.5161C18.8064 26.1947 17.1436 30.8327 17.1662 35.6155H19.4064C19.2904 32.6972 19.8999 26.0463 22.5426 22.5161C19.8954 18.9791 19.2813 12.3077 19.3973 9.39172H17.1662C17.1484 14.1828 18.8139 18.828 21.8717 22.5161" fill="#FFFF00"/>
<path d="M22.9816 22.5161C21.6056 24.0856 19.7293 29.217 19.8453 35.6155H22.0855C22.0855 32.0785 22.0446 25.7688 23.6548 22.5161C22.0446 19.2634 22.0855 12.9242 22.0855 9.39172H19.8453C19.7293 15.7856 21.6056 20.9444 22.9816 22.5161Z" fill="#FFFF00"/>
<path d="M24.7737 35.6155H22.5335C22.4767 30.7888 22.7769 25.3798 24.1028 22.5161C22.7769 19.6547 22.4767 14.2139 22.5335 9.39172H24.7737V35.6155Z" fill="#FFFF00"/>
<path d="M24.8601 36.696C24.3135 36.6634 23.7727 36.8232 23.3315 37.1477C22.8904 37.4722 22.5767 37.9408 22.4448 38.4724C22.3125 39.1518 22.3397 39.8526 22.5244 40.5196C22.6547 40.8738 22.8733 41.1888 23.1595 41.4348C23.4457 41.6808 23.7899 41.8496 24.1596 41.9253C24.8355 42.0658 25.5376 42.0081 26.1815 41.7592C26.5959 41.5928 26.9393 41.2872 27.1526 40.8949C27.4733 40.3763 27.4619 40.3626 26.6363 40.3626C25.9768 40.3626 25.904 40.3785 25.8312 40.5218C25.6493 40.8721 24.851 41.004 24.3871 40.7493C24.2421 40.6754 24.1162 40.569 24.0191 40.4384C23.9221 40.3078 23.8565 40.1565 23.8276 39.9964L23.7798 39.7507H27.4505L27.4141 39.1161C27.3307 37.7241 26.6553 36.9265 25.3878 36.7233C25.2133 36.6947 25.0369 36.6802 24.8601 36.6801M30.3184 36.6801C29.5884 36.7028 28.9334 36.9212 28.6172 37.2737C28.3852 37.574 28.2292 37.926 28.1624 38.2996C28.1624 38.4633 28.1851 38.4679 28.8447 38.4679H29.5269L29.6316 38.2245C29.7748 37.8833 30.0091 37.7696 30.5617 37.8105C30.9393 37.831 31.0507 37.8697 31.1599 38.0107C31.5078 38.4656 31.2599 38.6407 30.0955 38.8091C28.5968 39.0365 28.0964 39.3959 28.0487 40.3239C28.0306 40.5514 28.0367 40.7802 28.0669 41.0063C28.1485 41.212 28.2713 41.3987 28.4278 41.5552C28.5842 41.7116 28.771 41.8345 28.9766 41.9162C29.3317 42.0401 29.7128 42.0707 30.0832 42.005C30.4535 41.9393 30.8008 41.7794 31.0916 41.5408L31.3464 41.343L31.41 41.6114L31.4715 41.8798H32.2629C33.1203 41.8798 33.1726 41.8434 32.8929 41.5204C32.736 41.3475 32.7291 41.277 32.6927 39.4732L32.6541 37.5967L32.4266 37.3692C32.1082 37.019 31.7444 36.8484 31.0826 36.7528C30.8356 36.7175 30.5859 36.7045 30.3366 36.7142M13.6548 36.7142C13.2068 36.7079 12.7628 36.7995 12.3539 36.9826C11.8626 37.2442 11.4692 37.831 11.4692 38.3041C11.4692 38.4952 11.4692 38.4952 12.1515 38.4952C12.7314 38.4952 12.8337 38.477 12.8337 38.3769C12.8729 38.2466 12.9468 38.1294 13.0475 38.038C13.2295 37.8469 13.3136 37.8105 13.6593 37.8105C13.8559 37.8065 14.052 37.831 14.2415 37.8833C14.5872 38.0198 14.6645 38.4701 14.3689 38.6339C14.0429 38.7268 13.7097 38.7923 13.3728 38.8295C12.9603 38.8817 12.5542 38.9754 12.1606 39.1093C11.9731 39.193 11.804 39.3129 11.6629 39.462C11.5218 39.6112 11.4116 39.7867 11.3385 39.9786C11.2654 40.1705 11.2308 40.3749 11.2369 40.5801C11.2429 40.7854 11.2894 40.9874 11.3737 41.1746C11.4624 41.3583 11.5895 41.5208 11.7464 41.6511C11.9034 41.7814 12.0865 41.8765 12.2834 41.9298C12.902 42.1413 13.98 41.9298 14.4189 41.4931C14.5895 41.3248 14.6191 41.3498 14.6714 41.6955C14.6941 41.8343 14.7601 41.8479 15.4765 41.8661C16.302 41.8889 16.3862 41.8525 16.1269 41.5613C16.0155 41.4317 15.9995 41.2088 15.9813 39.6689C15.9813 38.709 15.945 37.8492 15.9245 37.7559C15.8608 37.458 15.4696 37.0736 15.0648 36.9143C14.6088 36.7574 14.1275 36.6872 13.6457 36.7073M19.2358 36.7233C18.8695 36.7119 18.5036 36.7571 18.151 36.8575C17.3891 37.1577 17.0139 37.7195 17.0707 38.4929C17.1276 39.2663 17.5415 39.587 19.0562 39.9236C20.2206 40.1852 20.3389 40.2375 20.3093 40.5105C20.2729 40.8312 19.8954 40.9949 19.2813 40.9654C18.7287 40.929 18.4307 40.7629 18.3716 40.4536C18.3307 40.2784 18.3034 40.2716 17.587 40.2512C16.8706 40.2307 16.8456 40.233 16.8478 40.4036C16.9031 40.7715 17.0698 41.1136 17.3254 41.3839C17.6855 41.6795 18.1168 41.8756 18.5763 41.9525C19.2453 42.0431 19.9255 42.0045 20.5799 41.8388C21.3623 41.5727 21.8035 40.9677 21.7512 40.2239C21.6943 39.4027 21.2258 39.057 19.7567 38.7522C18.5081 38.4952 18.2943 38.361 18.5285 37.9879C18.7628 37.6149 19.7066 37.649 20.0023 38.0016C20.0823 38.0855 20.1388 38.1891 20.166 38.3018C20.166 38.3905 20.3093 38.411 20.9006 38.411H21.6375L21.5852 38.1312C21.5297 37.8245 21.3869 37.5403 21.1739 37.3127C20.9609 37.0852 20.6867 36.9239 20.3844 36.8484C20.0055 36.7526 19.6151 36.7098 19.2245 36.721M36.9525 36.721C36.2929 36.721 35.9768 36.8234 35.6129 37.1759C35.519 37.2717 35.417 37.3592 35.3082 37.4375C35.2808 37.3391 35.2716 37.2366 35.2809 37.135V36.8347H33.9004V41.8889H35.3605V40.3217C35.3605 38.9569 35.3787 38.7295 35.4969 38.4497C35.6629 38.0721 35.995 37.8901 36.5203 37.8901C36.6298 37.8731 36.7419 37.8851 36.8453 37.9251C36.9487 37.965 37.0397 38.0314 37.1094 38.1176L37.3186 38.3451V41.9025H38.7719V39.9054C38.7719 37.7719 38.7537 37.6422 38.3671 37.2396C38.1815 37.0577 37.9595 36.9174 37.7156 36.828C37.4717 36.7386 37.2115 36.7021 36.9525 36.721ZM24.8283 37.8333C25.3741 37.8333 25.9086 38.2063 25.9086 38.7113C25.9086 38.8591 25.8699 38.8637 24.892 38.8637C23.914 38.8637 23.8754 38.8637 23.8754 38.6931C23.9187 38.4049 24.0709 38.1444 24.3007 37.9652C24.4624 37.8769 24.644 37.8315 24.8283 37.8333ZM31.285 39.4869V39.8736C31.285 40.3467 31.1076 40.6765 30.7641 40.8471C30.1751 41.136 29.6725 41.0746 29.486 40.6583C29.4481 40.588 29.4295 40.5089 29.4319 40.429C29.4342 40.3492 29.4576 40.2713 29.4996 40.2034C29.5883 39.9759 29.6634 39.9191 29.9863 39.8213C30.1711 39.7613 30.3617 39.7209 30.5549 39.7007C30.7106 39.6869 30.8637 39.6517 31.0098 39.5961L31.285 39.4869ZM14.5281 39.5415C14.5668 39.5415 14.5827 39.7257 14.5645 39.96C14.5639 40.1507 14.5094 40.3374 14.4071 40.4984C14.3049 40.6595 14.1592 40.7882 13.9868 40.8698C13.4819 41.1428 12.811 41.0245 12.72 40.6424C12.6827 40.5206 12.6829 40.3903 12.7207 40.2686C12.7584 40.1469 12.8319 40.0394 12.9315 39.96C13.4462 39.7656 13.9798 39.6253 14.5235 39.5415" fill="#0B3D91"/>
</g>
<defs>
<clipPath id="clip0_139_2841">
<rect width="50" height="50" fill="white"/>
</clipPath>
</defs>
</svg>
